<svg width="48" height="48" viewBox="0 0 48 48" fill="none" xmlns="http://www.w3.org/2000/svg">
  <path d="M36 32C34.3 32 32.8 32.7 31.7 33.8L18.4 26.3C18.5 25.9 18.5 25.5 18.5 25C18.5 24.5 18.5 24.1 18.4 23.7L31.6 16.2C32.7 17.3 34.2 18 36 18C39.3 18 42 15.3 42 12C42 8.7 39.3 6 36 6C32.7 6 30 8.7 30 12C30 12.5 30 12.9 30.1 13.3L16.9 20.8C15.8 19.7 14.3 19 12.5 19C9.2 19 6.5 21.7 6.5 25C6.5 28.3 9.2 31 12.5 31C14.3 31 15.8 30.3 16.9 29.2L30.1 36.7C30 37.1 30 37.5 30 38C30 41.3 32.7 44 36 44C39.3 44 42 41.3 42 38C42 34.7 39.3 32 36 32Z" stroke="currentColor" stroke-width="2" stroke-linecap="round" stroke-linejoin="round" fill="none"/>
</svg>