<?xml version="1.0" standalone="no"?><!DOCTYPE svg PUBLIC "-//W3C//DTD SVG 1.1//EN" "http://www.w3.org/Graphics/SVG/1.1/DTD/svg11.dtd"><svg t="1755513925398" class="icon" viewBox="0 0 1024 1024" version="1.1" xmlns="http://www.w3.org/2000/svg" p-id="43796" xmlns:xlink="http://www.w3.org/1999/xlink" width="128" height="128"><path d="M946.52 243.39l-31.35-52.7c-3.25-64.24-56.54-115.5-121.57-115.5H392.12c-11.98 0-21.69 9.71-21.69 21.69s9.71 21.69 21.69 21.69H793.6c43.2 0 78.35 35.15 78.35 78.34 0 3.91 1.05 7.73 3.05 11.09l34.23 57.56c17.52 29.46 9.97 67.33-17.28 86.27l12.42 17.78-13.11-17.32a21.703 21.703 0 0 0-9.15 20.62c0.39 3.04 0.59 6.11 0.59 9.13 0 53.31-59.06 96.67-131.65 96.67-37.79 0-73.89-12.12-99.02-33.27-8.07-6.79-19.85-6.79-27.93 0-25.14 21.14-61.24 33.27-99.03 33.27-39.11 0-76.03-12.85-101.29-35.25-8.21-7.29-20.58-7.29-28.79 0l-4.89 4.36c-24.14 21.64-38.72 34.69-94.95 30.94-57.09-3.81-76.56-15.8-95.4-27.41-2.35-1.44-4.66-2.87-7-4.26-17.18-10.23-37.93-41.52-37.93-65.06 0-1.53 0.06-3.03 0.15-4.53 0.54-8.56-4.01-16.63-11.61-20.6-1.57-0.83-3.12-1.69-4.65-2.62-29.93-18.23-39.04-58.68-20.3-90.2L151.79 208c1.99-3.35 3.05-7.18 3.05-11.09 0-43.2 35.15-78.34 78.35-78.34 11.98 0 21.69-9.71 21.69-21.69s-9.71-21.69-21.69-21.69c-65.03 0-118.33 51.26-121.58 115.5l-30.47 51.23c-29.91 50.29-16.03 114.85 30.55 146.55 2.92 39.5 31.92 79.87 58.89 95.92 2.15 1.28 4.27 2.59 6.43 3.92 21.15 13.02 47.46 29.23 115.26 33.75 6.98 0.47 13.52 0.68 19.68 0.68 52.44 0 76.66-16.08 98.34-34.83 31.62 21.9 72.41 34.19 114.78 34.19 42.06 0 81.53-11.58 112.99-32.9 31.46 21.32 70.92 32.9 112.99 32.9 46.86 0 89.44-14.84 120.89-38.91V796.4c0 45.79-27.48 85.21-66.78 102.85V743.39c0-56.94-46.32-103.26-103.26-103.26h-68.23c-56.93 0-103.26 46.32-103.26 103.26v165.77h-255.6c-62.17 0-112.76-50.58-112.76-112.75v-239.1c0-11.98-9.71-21.69-21.69-21.69s-21.69 9.71-21.69 21.69V796.4c0 86.1 70.04 156.14 156.14 156.14h484.37c86.1 0 156.14-70.04 156.14-156.14V433.76c0-0.96-0.16-1.87-0.28-2.79 7.12-15.24 11.04-31.72 11.04-48.93 0-0.64-0.01-1.27-0.02-1.91 38.15-33.49 47.49-91.29 20.46-136.74zM573.81 909.16V743.39c0-33.01 26.86-59.87 59.87-59.87h68.23c33.01 0 59.87 26.86 59.87 59.87v165.63c-0.87 0.02-1.72 0.13-2.59 0.13H573.81z" p-id="43797" fill="#2c2c2c"></path><path d="M245.7 705.04h171.9c11.98 0 21.69-9.71 21.69-21.69s-9.71-21.69-21.69-21.69H245.7c-11.98 0-21.69 9.71-21.69 21.69s9.71 21.69 21.69 21.69zM245.7 791.13h101.95c11.98 0 21.69-9.71 21.69-21.69s-9.71-21.69-21.69-21.69H245.7c-11.98 0-21.69 9.71-21.69 21.69s9.71 21.69 21.69 21.69zM209.23 251.52c0 11.98 9.71 21.69 21.69 21.69h585.65c11.98 0 21.69-9.71 21.69-21.69s-9.71-21.69-21.69-21.69H230.92c-11.98 0-21.69 9.71-21.69 21.69z" p-id="43798" fill="#2c2c2c"></path></svg>