<?xml version="1.0" standalone="no"?><!DOCTYPE svg PUBLIC "-//W3C//DTD SVG 1.1//EN" "http://www.w3.org/Graphics/SVG/1.1/DTD/svg11.dtd"><svg t="1755518023732" class="icon" viewBox="0 0 1024 1024" version="1.1" xmlns="http://www.w3.org/2000/svg" p-id="27011" xmlns:xlink="http://www.w3.org/1999/xlink" width="128" height="128"><path d="M775.68 481.28c-17.408-31.744-44.032-49.664-80.384-51.2-22.016-1.024-44.032-0.512-66.048-0.512h-3.072v-1.024c3.072-15.872 5.12-31.744 6.144-47.616 1.024-15.36 2.048-30.208 2.56-45.568 0-13.312 1.536-26.112-0.512-39.424-3.584-23.552-15.872-40.96-37.376-51.712-23.552-11.776-46.592-10.24-68.608 4.096-16.384 10.24-26.112 25.6-29.696 44.544-1.536 8.192-1.024 16.384-1.024 24.576 0 22.016-4.096 43.008-14.336 61.952-25.6 50.688-67.072 76.288-123.904 77.824-22.016 0.512-44.032 0-65.536 0-6.656 0-12.8 0.512-18.944 3.072-23.04 8.192-37.376 28.672-37.376 53.248v217.6c0 7.68 1.024 14.848 4.096 21.504 9.216 20.992 25.088 33.28 48.128 34.304 23.552 1.024 47.616 0.512 71.168 0.512 2.048 0 4.608-0.512 6.656-1.536 5.632-3.072 7.68-8.192 7.68-14.336V492.032c0-2.56-1.024-5.632 0.512-7.168 1.536-1.536 4.608-1.024 7.168-1.024 25.6-3.584 49.152-12.288 70.656-26.624 31.232-20.992 52.736-49.152 65.024-84.992 6.656-18.944 8.704-38.4 8.704-57.856 0-4.608 0-9.216 0.512-14.336 3.584-23.552 27.136-39.424 50.176-33.792 18.944 4.608 31.744 20.992 31.744 40.96 0 24.576-0.512 49.152-3.072 73.728-1.536 19.968-3.584 39.424-10.24 58.368-1.024 2.56-1.024 4.608-0.512 7.168 1.536 7.168 7.168 11.264 14.848 11.264 26.624 0 52.736 0.512 79.36 0.512 9.216 0 17.92 1.024 26.624 4.096 33.792 13.312 51.2 49.152 40.96 83.968-4.096 14.336-9.216 28.672-14.336 43.008-17.92 49.664-36.864 98.304-55.808 147.456-2.56 6.656-7.168 11.776-12.8 15.872-8.192 6.144-17.92 7.68-28.16 7.68H443.904c-10.24 1.024-15.872 12.288-10.24 20.992 3.072 5.12 8.192 6.656 13.824 6.656h200.704c16.384 0 31.744-4.096 45.056-14.336 8.704-6.656 15.872-14.336 19.968-24.576 7.168-18.944 14.848-37.888 22.016-56.32 15.872-41.472 31.744-82.944 45.568-124.928 3.584-11.264 7.168-22.528 7.68-34.816-0.512-18.944-4.096-35.84-12.8-51.712m-431.616 278.528h-50.688c-16.896 0-28.672-11.776-28.672-28.672v-217.6c0-16.384 11.776-28.16 28.16-28.672h51.712c2.56 0 2.56 1.024 2.56 2.56v269.312c0 2.56-0.512 3.072-3.072 3.072m0 0z" fill="#2c2c2c" p-id="27012"></path><path d="M512 1021.44C230.912 1021.44 2.56 793.088 2.56 512S230.912 2.56 512 2.56s509.44 228.352 509.44 509.44-228.352 509.44-509.44 509.44z m0-1003.52C239.616 17.92 17.92 239.616 17.92 512s221.696 494.08 494.08 494.08 494.08-221.696 494.08-494.08S784.384 17.92 512 17.92z" fill="#2c2c2c" p-id="27013"></path></svg>