<svg width="40" height="40" viewBox="0 0 40 40" fill="none" xmlns="http://www.w3.org/2000/svg">
  <!-- 背景圆形 -->
  <circle cx="20" cy="20" r="20" fill="#4A90E2"/>
  
  <!-- 钓鱼竿 -->
  <path d="M8 32 L20 8 L22 8 L10 32 Z" fill="#8B4513" stroke="#654321" stroke-width="0.5"/>
  
  <!-- 鱼钩和线 -->
  <path d="M20 8 Q25 12 28 18" stroke="#333" stroke-width="1" fill="none"/>
  <circle cx="28" cy="18" r="1.5" fill="#C0C0C0"/>
  <path d="M28 18 Q30 20 29 22 Q28 24 26 22" stroke="#C0C0C0" stroke-width="1" fill="none"/>
  
  <!-- 鱼 -->
  <ellipse cx="32" cy="25" rx="4" ry="2.5" fill="#FF6B35"/>
  <circle cx="34" cy="24" r="0.5" fill="#FFF"/>
  <path d="M28 25 L30 23 L30 27 Z" fill="#FF6B35"/>
  
  <!-- 水波纹 -->
  <path d="M5 35 Q10 33 15 35 Q20 37 25 35 Q30 33 35 35" stroke="#87CEEB" stroke-width="1.5" fill="none" opacity="0.7"/>
  <path d="M3 37 Q8 35 13 37 Q18 39 23 37 Q28 35 33 37" stroke="#87CEEB" stroke-width="1" fill="none" opacity="0.5"/>
</svg>